<?xml version="1.0" encoding="UTF-8" standalone="no"?>
<svg width="485px" height="82px" viewBox="0 0 485 82" version="1.1" xmlns="http://www.w3.org/2000/svg" xmlns:xlink="http://www.w3.org/1999/xlink">
    <!-- Generator: Sketch 41.2 (35397) - http://www.bohemiancoding.com/sketch -->
    <title>Page 1</title>
    <desc>Created with Sketch.</desc>
    <defs></defs>
    <g id="Page-1" stroke="none" stroke-width="1" fill="none" fill-rule="evenodd">
        <g fill="#010202">
            <path d="M234.3115,69.2993 C233.9745,69.0053 230.9395,66.4433 228.4965,67.3773 C227.0625,67.9233 226.1885,69.4913 225.8975,72.0373 L225.8815,72.1753 L225.9215,72.3083 C225.9395,72.3653 227.6695,77.8293 233.5325,77.8293 C233.6585,77.8293 233.7875,77.8263 233.9175,77.8213 C236.2895,77.7263 237.0935,76.6793 237.3515,75.8183 C238.0465,73.4943 235.3955,70.1033 234.3115,69.2993" id="Fill-1"></path>
            <path d="M342.5977,51.7241 C345.8627,48.4661 345.5587,45.3791 344.7297,43.3631 C343.9707,41.5211 342.0247,40.4111 339.8187,40.5161 C337.3167,40.6411 334.1837,42.3851 332.2717,46.7731 C331.5427,44.6821 330.0467,41.6581 327.3297,40.8911 C324.8937,40.2021 322.0807,41.4871 318.9617,44.7101 C318.1377,43.6331 316.4587,41.5801 314.9327,40.5651 C319.0257,36.7631 338.7547,17.8901 338.1357,8.0641 C338.0217,6.2591 337.2487,4.8281 335.8367,3.8111 C335.6187,3.5701 335.0047,3.0861 333.8997,3.0841 C329.9617,3.1151 321.4077,9.0381 303.0187,37.0711 C301.9027,38.0801 285.9677,52.3751 260.8317,69.0191 C260.1727,69.4811 258.7337,70.1721 258.2097,69.7471 C257.8267,69.4341 256.8927,67.6921 260.9457,58.3781 C264.4507,50.0391 271.1037,36.5391 274.0347,35.8151 C274.0447,35.8131 274.0537,35.8101 274.0637,35.8081 C273.7477,37.1311 273.2657,40.2311 274.7447,43.0071 C275.8617,45.1001 277.8447,46.5501 280.6407,47.3171 L280.9637,47.4051 L281.2287,47.2011 C281.3657,47.0951 284.6167,44.5641 287.2837,40.4321 C290.8547,34.8981 291.6057,29.1561 289.4627,23.8431 C289.3847,23.6321 287.4857,18.6651 282.9417,17.9331 C278.8907,17.2811 274.2047,20.2331 269.0097,26.7101 C254.8937,44.3081 250.4497,59.5701 250.4497,62.3191 C250.4497,62.5861 250.3587,63.1991 250.2527,63.9081 C249.7027,67.6331 248.5567,75.3861 252.9187,78.6471 C254.1877,79.5961 255.8157,80.0701 257.7937,80.0701 C260.6737,80.0701 264.2947,79.0661 268.6267,77.0621 L268.7757,76.9671 C269.0067,76.7741 291.9357,57.5861 294.5357,55.9451 C294.5417,55.9411 294.5477,55.9371 294.5537,55.9331 C294.9577,56.8411 294.5097,61.0541 293.5227,65.4521 L293.4847,65.6231 L293.5347,65.7911 C293.5517,65.8471 293.9587,67.1561 295.3937,67.5881 C297.0517,68.0901 299.2857,67.1821 302.0337,64.8941 C302.6907,64.3461 303.1717,63.9681 303.5247,63.7061 C303.5137,63.7341 303.5027,63.7611 303.4937,63.7871 C302.9197,65.2941 302.1337,67.3581 303.1547,68.6491 C303.4467,69.0171 303.8737,69.2321 304.3917,69.2701 C306.4817,69.4041 310.6147,66.2421 313.1077,64.1021 C312.2457,66.8001 311.3157,70.9511 312.7937,73.2021 C313.4787,74.2441 314.5647,74.7871 316.0247,74.8171 C316.1627,74.8561 316.3417,74.8711 316.5647,74.8221 C318.7007,74.3351 322.4677,67.4141 325.6927,60.6381 C325.8237,61.5891 326.1547,62.5251 326.8627,63.1581 C327.8347,64.0261 329.2697,64.1301 331.1277,63.4691 C336.2387,61.6521 339.9327,55.8381 341.7077,53.0441 C342.0937,52.4361 342.4587,51.8621 342.5977,51.7241" id="Fill-3"></path>
            <path d="M367.9805,54.3369 C368.1285,53.9759 368.5795,53.6789 369.3285,53.4479 C368.9495,54.3679 369.1285,55.3479 369.8345,56.1289 L372.2445,58.7979 L373.0465,58.5709 C374.0095,58.2979 382.4735,55.7509 383.2665,50.2019 C383.6685,47.4039 383.1925,45.3709 381.8515,44.1569 C381.0365,43.4189 379.5305,42.6739 376.9865,43.3019 C375.9155,43.5669 357.3925,50.5909 358.1605,55.2619 C358.3515,56.4139 359.3395,57.7509 361.0725,60.0139 C364.3155,64.2519 367.0465,68.2089 364.8735,70.0439 C361.8095,72.6269 358.4965,73.2999 357.4675,72.6449 C357.3645,72.5789 357.0495,72.3789 357.3085,71.4209 C357.8015,69.5989 356.9075,68.8039 356.4995,68.5469 C354.5495,67.3159 351.4885,69.7899 350.8955,70.2989 C348.4185,72.4259 347.4495,74.8649 348.3015,76.8229 C349.3035,79.1279 352.6925,81.0419 356.5425,81.4769 C357.1205,81.5419 357.6955,81.5739 358.2675,81.5739 C363.4905,81.5739 368.4405,78.8849 372.0675,74.0159 C372.5775,73.5219 374.4065,71.5349 374.5885,68.3279 C374.7705,65.1269 373.2925,61.7939 370.1965,58.4219 C368.2125,56.2609 367.7515,54.8949 367.9805,54.3369" id="Fill-5"></path>
            <path d="M484.3115,7.041 C484.0415,5.684 482.3325,4.355 471.6995,4.782 L471.5375,4.809 C470.2695,5.182 440.4715,14.018 433.4755,22.111 C432.1715,23.164 414.2895,37.793 409.9615,50.74 L403.5715,47.387 C403.8735,46.874 404.0525,46.58 404.0635,46.562 L404.1745,46.308 L404.1485,46.078 C403.9125,43.987 416.2445,27.165 427.9935,12.365 C429.7955,11.156 430.7655,9.66 430.8755,7.917 C431.1185,4.072 426.9985,0.512 426.8235,0.363 L426.3985,0 L425.9635,0.353 C394.2455,26.139 378.9845,60.71 378.8775,60.972 C374.9175,67.402 386.5895,75.322 387.1295,75.682 C390.0255,77.328 391.7355,78.059 392.8485,78.058 C393.2365,78.058 393.5525,77.969 393.8205,77.8 C394.8355,77.156 394.7225,75.683 394.5675,73.643 C394.4155,71.657 394.2075,68.938 394.9805,66.079 C395.8035,63.031 397.2425,59.599 398.7355,56.471 L407.8085,61.246 C407.7455,62.072 407.7505,63.818 408.5965,65.821 C409.6455,68.303 412.2375,71.675 418.6845,73.657 C418.7625,73.674 419.6315,73.866 420.7415,73.866 C422.1305,73.866 423.8975,73.565 424.9575,72.248 C426.3255,70.549 426.0875,67.702 424.2495,63.787 L424.1585,63.642 C421.6755,60.664 419.8225,58.909 418.6235,58.399 C419.2475,56.432 422.7315,48.82 430.1595,40.37 C437.3935,32.139 450.0295,21.3 469.2095,16.387 C472.9175,15.024 484.9635,10.322 484.3115,7.041" id="Fill-7"></path>
            <path d="M436.9854,63.6592 C435.8754,63.5342 433.1764,63.6832 432.2334,67.7972 C431.1154,72.6702 433.6394,75.0042 434.7764,75.7812 C435.8354,76.5052 437.0684,76.8722 438.2434,76.8722 C439.2264,76.8722 440.1694,76.6152 440.9344,76.0942 C444.1064,73.9382 442.4294,68.6492 442.1404,67.8172 C442.0094,66.1042 439.3374,63.9252 436.9854,63.6592" id="Fill-10"></path>
            <path d="M355.1416,46.9595 C354.2686,45.7655 353.2896,45.5835 352.6296,45.6415 C349.7896,45.8835 347.1296,50.9655 346.7416,51.7405 C340.8286,60.3555 337.8896,70.6855 340.5756,73.4305 C340.9536,73.8175 341.5146,74.1465 342.3256,74.1465 C343.1106,74.1465 344.1296,73.8385 345.4466,72.9745 C350.6806,69.5405 354.6066,61.1815 355.7796,54.6985 C356.4216,51.1465 356.1956,48.3985 355.1416,46.9595" id="Fill-12"></path>
            <path d="M173.3555,35.4106 C173.9565,35.8576 174.6635,36.0846 175.4425,36.0846 C175.8285,36.0846 176.2315,36.0286 176.6475,35.9166 C180.4005,34.9076 184.9935,29.3956 186.9285,24.8806 C187.2035,24.2396 187.4845,23.6176 187.7555,23.0146 C189.1335,19.9626 190.3235,17.3276 189.3845,15.1266 C188.8155,13.7916 187.5155,12.7736 185.4115,12.0146 C185.0745,11.8096 183.8615,11.1846 182.2125,11.6446 C179.8735,12.2936 177.7595,14.7586 175.9435,18.9456 C175.2765,20.3306 169.5365,32.5646 173.3555,35.4106" id="Fill-14"></path>
            <path d="M214.2822,55.8384 C214.2502,57.2374 213.9172,59.8994 212.0422,61.9944 C210.5832,63.6254 209.8612,63.6914 209.6622,63.6654 C209.5842,63.6564 209.5272,63.6284 209.4872,63.5994 C209.8092,58.8794 212.7742,56.6664 214.2822,55.8384 M226.6022,48.3514 C224.8022,45.6104 219.5152,44.5124 215.7052,45.2034 C210.1662,46.2104 202.0372,58.6714 200.8002,61.1394 C199.7292,63.2754 196.0872,65.8284 194.7202,65.7134 C194.5222,65.6994 194.5032,65.6434 194.4792,65.5724 C194.2362,64.8424 196.1162,61.4304 197.4892,58.9394 C199.4032,55.4644 201.5732,51.5264 202.0602,48.7264 C202.3932,46.8114 201.7012,45.2904 200.2542,44.7564 C197.1592,43.6094 191.2132,47.1984 184.9222,57.7824 C183.8032,58.7754 182.4042,59.6034 182.0682,59.4844 C182.0452,59.4574 181.5252,58.7574 183.4702,54.1734 C185.1742,50.1554 186.7082,48.1204 187.7232,46.7744 C189.7232,44.1224 189.3602,43.6034 185.8772,40.3114 C185.8002,40.2464 185.0782,39.6844 183.8342,39.9534 C181.3792,40.4834 178.6882,43.7604 175.8362,49.6934 C171.8442,57.9954 170.9322,65.3674 173.3952,69.4144 C174.6332,71.4464 176.6812,72.5614 179.3932,72.6354 C179.9252,72.5944 183.9662,72.2264 186.1222,70.6024 C186.4552,71.6954 187.1762,73.1894 188.7162,73.9894 C190.7252,75.0324 193.4652,74.5604 196.8632,72.5844 L200.2942,71.5024 C200.3672,71.8304 200.5172,72.2044 200.8052,72.5794 C201.7622,73.8254 203.7842,74.4794 206.8182,74.5254 C207.1252,75.4454 207.9672,76.5484 209.7422,76.5484 C209.8772,76.5484 210.0162,76.5424 210.1612,76.5284 C212.0032,76.3614 215.3302,71.3104 222.0932,60.0524 C223.7652,57.2674 225.2112,54.8614 226.2282,53.3344 C227.7472,51.0574 227.2702,49.3684 226.6022,48.3514" id="Fill-16"></path>
            <path d="M65.0918,55.6357 C63.3578,59.7747 58.9458,64.2147 57.1018,65.9567 C56.8918,62.5387 61.7988,58.0887 65.0918,55.6357 M114.2328,67.5777 C114.1518,67.5567 114.1048,67.5117 114.0838,67.4877 C113.6498,64.9807 115.4428,63.0237 115.4678,62.9957 C115.8348,62.5917 116.0728,62.4187 116.2028,62.3447 C116.2628,62.5477 116.3408,63.0487 116.2098,64.1517 C115.9888,66.0167 115.6268,66.8667 115.5048,67.1127 C114.7138,67.6417 114.3328,67.6037 114.2328,67.5777 M163.9388,44.9337 C161.2468,44.0157 158.1278,44.8467 154.6678,47.4047 C154.0988,47.7137 148.1448,50.9687 141.4178,55.6727 C141.0548,55.6117 140.5628,55.4457 140.4858,55.1817 C140.4268,54.9807 140.3548,53.8177 144.7318,50.6567 C144.7818,50.6207 149.8628,46.9897 154.4808,42.5607 C160.8248,36.4777 163.3278,31.8027 161.9218,28.6657 C161.7308,27.9457 160.0128,21.9427 155.8418,21.2117 C152.6788,20.6597 149.0828,23.3207 145.1648,29.1197 C144.8228,29.6107 136.8448,41.1027 134.0288,47.9887 C130.4298,50.3967 126.2268,52.9277 124.6588,53.5017 C124.8028,52.6897 125.1248,51.0937 125.7978,48.5537 C126.3328,46.5377 124.9608,44.3217 122.4618,43.1647 C119.7108,41.8917 115.4098,41.9657 112.3468,46.3697 C108.5248,51.8627 104.8928,53.3967 103.7168,53.7687 C103.6618,53.1307 103.9878,50.7937 108.8678,43.7777 L109.0528,43.5117 L108.9608,43.2017 C108.9008,43.0017 107.4578,38.2847 104.4678,37.8727 C102.6628,37.6187 100.7748,38.9987 98.9298,41.9177 C98.8168,42.0667 87.4888,56.8007 78.3078,63.4587 C75.2438,65.6807 72.9308,66.3737 71.7968,65.4107 C70.9708,64.7107 70.7148,63.1637 70.9668,61.1787 C73.4648,57.0867 75.9698,52.8577 77.8058,49.4727 C78.4858,48.2207 78.7208,45.0807 77.0698,43.7067 C74.1178,41.2487 67.9948,37.9487 60.1448,43.4757 C57.7298,45.1757 55.2168,46.9597 52.7088,48.7387 C44.4448,54.6047 35.9068,60.6627 31.6218,63.1897 C30.8528,62.4177 29.0458,60.3427 29.1248,57.9487 C29.1808,56.2597 30.1748,54.6837 32.0698,53.2727 C32.9058,52.6747 52.6028,38.4897 56.4418,25.4417 L56.4968,25.2517 L56.4418,25.0627 C56.4018,24.9257 55.4248,21.6907 53.0078,21.2917 C51.2198,20.9977 49.2498,22.3517 47.1258,25.3747 C47.0468,25.5117 39.5648,38.4047 29.7728,43.6047 C31.7388,39.2537 36.8488,27.7917 37.9748,23.6607 C39.4488,18.2507 36.5358,13.6607 33.2038,11.6867 C32.6368,11.3507 32.1678,11.4277 31.8728,11.5497 C30.6198,12.0697 30.0398,14.3517 28.7698,19.3527 C27.1258,25.8207 24.3828,36.6157 18.0748,50.1647 C15.8688,50.7777 3.0378,54.8327 0.0388,66.8277 L-0.0002,66.9857 L0.0368,67.1447 C0.0668,67.2687 0.7868,70.1847 3.6128,71.1977 C6.1238,72.0977 9.3838,71.1757 13.3178,68.4597 C12.9148,71.7897 12.3958,79.0547 15.1848,81.0467 L15.3258,81.1477 L15.4998,81.1667 C15.5258,81.1697 15.5508,81.1717 15.5768,81.1717 C17.6568,81.1717 20.4688,71.9797 22.5588,63.7797 C23.4418,66.7667 25.6668,71.4127 31.1648,73.2777 C31.6758,73.7617 32.6208,73.3497 51.5328,59.2527 C47.9958,64.3457 45.2308,71.2877 50.0868,77.2607 L50.2498,77.4047 C50.3118,77.4447 56.5758,81.2987 61.3918,76.3897 L61.4758,76.2857 C61.5218,76.2137 63.5338,73.1047 66.2358,68.8087 C66.1718,70.6947 66.4398,72.7617 67.5368,74.4057 C68.7178,76.1747 70.6438,77.1607 73.2618,77.3367 C73.3478,77.3547 73.4698,77.3697 73.6338,77.3697 C75.2348,77.3697 80.7478,75.8637 94.0458,59.8267 L94.6838,58.9847 C94.3808,60.2657 94.2858,61.6017 94.6818,62.7307 C95.0758,63.8567 95.8888,64.6507 97.0968,65.0897 C99.9508,66.1277 104.0588,62.0347 107.6858,58.4257 C109.4298,56.6897 111.8138,54.3187 112.4498,54.3187 L112.4668,54.3187 C112.4688,54.3217 112.6538,54.5617 112.5508,55.6837 C111.6738,57.0557 105.3218,67.2527 107.1318,71.8207 C107.5748,72.9387 108.4338,73.6597 109.6638,73.9597 C109.7308,73.9797 116.4018,75.7417 119.8208,68.2517 L122.0278,62.7117 C123.2548,63.0057 126.0708,63.1887 130.4508,60.6717 C130.4528,62.0597 130.7598,64.1957 132.4048,65.6067 C134.4228,67.3407 137.7938,67.4137 142.4978,65.7957 C142.7688,65.6657 149.1248,62.5757 152.5438,59.1197 C155.3388,57.4947 158.2568,56.3307 158.7618,56.5437 C158.7628,56.5457 158.8038,56.7227 158.5698,57.2457 C157.9168,58.1267 151.7838,66.7057 156.2818,72.2807 C156.3348,72.3687 157.5868,74.4477 159.5208,74.2267 C161.4348,74.0157 163.0708,71.7367 164.4898,67.3377 C164.6658,66.9607 168.8158,58.0307 169.7358,52.0477 L169.7578,51.9037 L169.7188,51.7627 C169.6558,51.5437 168.1548,46.3707 163.9388,44.9337" id="Fill-18"></path>
            <path d="M360.6494,40.7207 C360.9204,40.8037 361.1964,40.8447 361.4784,40.8447 C362.3964,40.8447 363.3744,40.4087 364.3964,39.5417 C368.0164,36.4747 368.1414,35.0187 367.9284,33.4337 L367.8914,33.1457 C367.7084,31.4537 364.7954,30.1047 363.5694,30.0327 C363.2064,29.9857 360.5134,29.7007 358.8634,31.4737 C357.6534,32.7727 357.3424,34.7877 357.9494,37.4987 C357.9794,37.6067 358.7124,40.1287 360.6494,40.7207" id="Fill-21"></path>
        </g>
    </g>
</svg>